<mxfile host="app.diagrams.net" agent="Mozilla/5.0 (Macintosh; Intel Mac OS X 10_15_7) AppleWebKit/537.36 (KHTML, like Gecko) Chrome/127.0.0.0 Safari/537.36" version="24.7.6">
  <diagram name="第 1 页" id="_JfLsilesAc822bHRh2C">
    <mxGraphModel dx="1004" dy="638" grid="1" gridSize="10" guides="1" tooltips="1" connect="1" arrows="1" fold="1" page="1" pageScale="1" pageWidth="827" pageHeight="1169" math="0" shadow="0">
      <root>
        <mxCell id="0" />
        <mxCell id="1" parent="0" />
        <mxCell id="f5wkBOlyrNhl2swoxOm--12" style="edgeStyle=orthogonalEdgeStyle;rounded=0;orthogonalLoop=1;jettySize=auto;html=1;entryX=0.5;entryY=0;entryDx=0;entryDy=0;" edge="1" parent="1" source="f5wkBOlyrNhl2swoxOm--6" target="f5wkBOlyrNhl2swoxOm--9">
          <mxGeometry relative="1" as="geometry" />
        </mxCell>
        <mxCell id="f5wkBOlyrNhl2swoxOm--13" style="edgeStyle=orthogonalEdgeStyle;rounded=0;orthogonalLoop=1;jettySize=auto;html=1;" edge="1" parent="1" source="f5wkBOlyrNhl2swoxOm--6" target="f5wkBOlyrNhl2swoxOm--8">
          <mxGeometry relative="1" as="geometry" />
        </mxCell>
        <mxCell id="f5wkBOlyrNhl2swoxOm--14" style="edgeStyle=orthogonalEdgeStyle;rounded=0;orthogonalLoop=1;jettySize=auto;html=1;" edge="1" parent="1" source="f5wkBOlyrNhl2swoxOm--6" target="f5wkBOlyrNhl2swoxOm--10">
          <mxGeometry relative="1" as="geometry" />
        </mxCell>
        <mxCell id="f5wkBOlyrNhl2swoxOm--6" value="" style="rounded=0;whiteSpace=wrap;html=1;dashed=1;dashPattern=12 12;" vertex="1" parent="1">
          <mxGeometry x="90" y="200" width="710" height="80" as="geometry" />
        </mxCell>
        <mxCell id="f5wkBOlyrNhl2swoxOm--4" style="edgeStyle=orthogonalEdgeStyle;rounded=0;orthogonalLoop=1;jettySize=auto;html=1;entryX=0;entryY=0.5;entryDx=0;entryDy=0;" edge="1" parent="1" source="f5wkBOlyrNhl2swoxOm--1" target="f5wkBOlyrNhl2swoxOm--2">
          <mxGeometry relative="1" as="geometry" />
        </mxCell>
        <mxCell id="f5wkBOlyrNhl2swoxOm--1" value="&lt;b&gt;&lt;font style=&quot;font-size: 15px;&quot;&gt;Hand-Craft特征计算&lt;/font&gt;&lt;/b&gt;&lt;div&gt;WeightedLocation/Direction/PointNum&lt;/div&gt;" style="rounded=0;whiteSpace=wrap;html=1;" vertex="1" parent="1">
          <mxGeometry x="100" y="210" width="210" height="60" as="geometry" />
        </mxCell>
        <mxCell id="f5wkBOlyrNhl2swoxOm--5" style="edgeStyle=orthogonalEdgeStyle;rounded=0;orthogonalLoop=1;jettySize=auto;html=1;entryX=0;entryY=0.5;entryDx=0;entryDy=0;" edge="1" parent="1" source="f5wkBOlyrNhl2swoxOm--2" target="f5wkBOlyrNhl2swoxOm--3">
          <mxGeometry relative="1" as="geometry" />
        </mxCell>
        <mxCell id="f5wkBOlyrNhl2swoxOm--2" value="&lt;b&gt;&lt;font style=&quot;font-size: 15px;&quot;&gt;Hand-Craft特征加权&lt;/font&gt;&lt;/b&gt;&lt;div&gt;hesai40/hesai90/at128_fusion&lt;/div&gt;" style="rounded=0;whiteSpace=wrap;html=1;" vertex="1" parent="1">
          <mxGeometry x="340" y="210" width="210" height="60" as="geometry" />
        </mxCell>
        <mxCell id="f5wkBOlyrNhl2swoxOm--3" value="&lt;span style=&quot;font-size: 15px;&quot;&gt;&lt;b&gt;匹配求解&lt;/b&gt;&lt;/span&gt;&lt;div style=&quot;&quot;&gt;&lt;span style=&quot;background-color: rgb(255, 255, 255); font-family: -apple-system, &amp;quot;system-ui&amp;quot;, &amp;quot;Segoe UI&amp;quot;, Helvetica, Arial, sans-serif, &amp;quot;Apple Color Emoji&amp;quot;, &amp;quot;Segoe UI Emoji&amp;quot;; text-align: start;&quot;&gt;Hungarian/KM/&lt;/span&gt;&lt;span style=&quot;background-color: initial;&quot;&gt;GNN&lt;/span&gt;&lt;/div&gt;" style="rounded=0;whiteSpace=wrap;html=1;" vertex="1" parent="1">
          <mxGeometry x="580" y="210" width="210" height="60" as="geometry" />
        </mxCell>
        <mxCell id="f5wkBOlyrNhl2swoxOm--7" value="Association" style="text;html=1;align=center;verticalAlign=middle;resizable=0;points=[];autosize=1;strokeColor=none;fillColor=none;fontStyle=1;fontSize=18;" vertex="1" parent="1">
          <mxGeometry x="90" y="160" width="120" height="40" as="geometry" />
        </mxCell>
        <mxCell id="f5wkBOlyrNhl2swoxOm--8" value="&lt;b style=&quot;font-size: 16px;&quot;&gt;Assignments&lt;/b&gt;" style="whiteSpace=wrap;html=1;fontSize=16;fillColor=#dae8fc;strokeColor=#6c8ebf;" vertex="1" parent="1">
          <mxGeometry x="355" y="340" width="180" height="60" as="geometry" />
        </mxCell>
        <mxCell id="f5wkBOlyrNhl2swoxOm--9" value="&lt;b style=&quot;font-size: 16px;&quot;&gt;No-Assigned Objects&lt;/b&gt;" style="whiteSpace=wrap;html=1;fontSize=16;fillColor=#f5f5f5;fontColor=#333333;strokeColor=#666666;" vertex="1" parent="1">
          <mxGeometry x="160" y="340" width="180" height="60" as="geometry" />
        </mxCell>
        <mxCell id="f5wkBOlyrNhl2swoxOm--10" value="&lt;b style=&quot;font-size: 16px;&quot;&gt;No-Assigned Tracks&lt;/b&gt;" style="whiteSpace=wrap;html=1;fontSize=16;fillColor=#fff2cc;strokeColor=#d6b656;" vertex="1" parent="1">
          <mxGeometry x="550" y="340" width="180" height="60" as="geometry" />
        </mxCell>
      </root>
    </mxGraphModel>
  </diagram>
</mxfile>
